<svg class="svg-icon" style="width: 1em; height: 1em;vertical-align: middle;fill: currentColor;overflow: hidden;" viewBox="0 0 1024 1024" version="1.1" xmlns="http://www.w3.org/2000/svg"><path d="M557.096081 518.608511c3.738138-1.77646 26.868951-2.951215 36.316114 0 1.167592-6.377244-1.691525-20.602224-7.357572-23.87578-20.687158-11.933797-53.146431-18.632359-76.717266-18.97005-9.008164-0.135076-15.392572 0.795109-17.600867 2.444679-3.653203 2.714831-5.852288 8.871041-13.31219 40.401152-3.187599 13.556761-9.023514 28.965705-17.717524 39.927361-15.172561 19.105127-38.616506 31.359218-64.910359 31.359218-45.771463 0-82.823334-41.246403-82.874499-82.865289-0.033769-37.84698 24.958438-69.798692 59.912531-79.685877 6.393617-1.801019 13.68365-3.315512 15.502066-9.007141 1.708921-5.362124-1.065262-8.305153-3.560082-11.079336-78.603219-87.372953-152.682401-172.793438-212.670657-297.735032-2.605338-5.430686-4.736884-6.563486-6.884804-6.935969-2.562359-0.438998-5.353938 0.566912-7.966439 3.949962-28.924773 37.423331-16.627702 94.248547 17.73492 137.508817 37.872562 47.665603 79.060637 93.859691 123.698277 138.498354-66.161862-47.438429-133.482107-102.352109-191.500499-171.482583-3.797489-4.52506-6.080485-5.074575-8.220219-4.913916-2.537799 0.202615-4.939499 1.826602-6.597255 5.666046-18.437931 42.532699 6.968715 93.513814 50.042743 126.294404 42.329061 32.129768 86.958514 62.449307 133.974317 90.849124-69.892837-27.351951-143.100162-60.774155-211.122395-109.497856-4.685719-3.38305-7.003508-3.349281-8.981559-2.682086-2.359744 0.804319-4.254907 2.934842-4.90573 6.977925-7.214309 44.815695 29.229718 87.069031 78.036307 107.764376 43.556005 18.361183 88.599897 34.767851 135.174656 49.146327-62.331627-7.721869-128.197754-19.545148-193.310727-43.699268-5.302773-1.988284-7.476275-1.37123-9.185196-0.228197-2.02103 1.360997-3.255137 3.855818-2.832512 7.847735 4.685719 44.189432 49.948599 74.763774 101.370759 81.783655 38.22765 5.124717 77.106122 8.652054 116.63644 10.529821-55.489802 6.66377-114.970498 11.086499-176.557158 4.88731-5.514597-0.583285-7.408737 0.541329-8.736988 2.038426-1.589195 1.793856-2.14792 4.473895-0.76134 8.144494 15.316847 40.696888 65.722864 58.491159 116.137067 52.486398 30.091342-3.670599 60.317761-8.441253 90.697675-14.326287-42.895973 16.017812-77.673034 28.932959-126.904295 37.280068-5.352915 0.87902-6.850012 2.427282-7.712659 4.194532-1.023306 2.097778-0.862647 4.761444 1.394766 7.865131 19.113313 25.448602 56.224536 33.711799 96.906074 21.506826 19.561521-5.860475 49.568952-15.95846 68.555375-23.561625-31.740912 20.433378-48.15679 27.832905-84.016509 44.274366-4.803399 2.190899-5.818519 4.051269-6.191003 5.937223-0.422625 2.232854 0.388856 4.745071 3.340071 7.061836 30.454616 23.86657 64.49592 13.167904 90.680279 3.196809 16.314571-6.207375 32.536021-12.905938 48.672536-19.815301-13.633508 10.570753-27.748994 20.804838-42.405809 30.590715-4.26207 2.841721-4.947685 4.76963-5.006014 6.630001-0.067538 2.199085 1.116427 4.431939 4.27128 6.225795 25.524327 14.504342 57.120952 9.28548 84.887342-7.857968-10.504238 17.71036-23.782659 32.764218-38.228673 44.722574 5.395894 2.064009 18.945491 1.336438 24.645306-0.870834-6.825452 10.114358-12.153808 20.533662-19.739577 30.091342-12.618389 15.874549-29.693276-14.403035-47.099714-8.575306-1.1328 0.38067-2.131547 0.87902-2.917446 1.987261-5.886057 1.166569-12.618389 7.662517-10.884908 19.095917 4.981455-8.270361 11.062963-8.989745 15.223726-8.745175 7.848759 1.362021 11.848862 3.738138 15.730263 6.309706-8.398274-2.223644-25.803689 1.759063-26.936489 12.364609-4.947685 7.264451-6.79987 16.838503 2.436492 25.668613 0.845251-21.160949 16.770965-26.979468 32.044834-26.15059-9.336646 2.715855-20.788465 12.07706-17.421788 23.072485-1.143033 5.886057 2.520403 16.322757 13.784958 19.020192-4.160763-5.251607-5.166673-12.06785-2.951215-17.388019 3.552919-8.508791 12.822027-13.168927 19.495006-14.749936 13.124925-3.121084 24.796756 0.710175 29.930683 5.910617 2.671852 2.723018 4.228301 9.075703 1.521656 14.352893 7.52744-3.764744 9.498328-13.490246 8.203846-18.844184 0.465604-0.490164 0.862647-1.175779 0.533143-2.503007-2.597151-10.386558-21.414729-10.369162-11.730159-21.490453l21.261233-24.37413c-0.422625 6.520507 2.714831 15.391549 6.377244 20.533662 9.31925-19.916609 24.37413-43.225477 40.467667-59.870576-16.263405 48.055482-41.922808 99.30675-71.13513 138.245597-2.199085 2.926656-2.282996 4.456498-1.970888 5.78475 0.372483 1.599428 1.539053 2.944052 3.889587 3.570315 20.280906 5.395894 40.781822-6.682189 55.624878-26.962072-5.776563 18.944468-12.465916 37.863353-20.263509 56.605206-1.455141 3.459798-1.193175 4.955872-0.576121 6.158257 0.735757 1.428535 2.165316 2.400676 4.592598 2.325975 21.769816-0.701988 39.386032-19.909445 48.75747-45.459355 1.057075 41.297568 5.887081 74.535577 20.577664 74.535577 14.690584 0 19.50217-33.236985 20.567431-74.535577 9.379625 25.549909 26.996864 44.756343 48.765657 45.459355 2.419096 0.075725 3.855818-0.896416 4.592598-2.325975 0.608867-1.201361 0.87902-2.698458-0.576121-6.158257-7.80578-18.74083-14.495132-37.660738-20.263509-56.605206 14.843056 20.280906 35.343973 32.357965 55.616692 26.962072 2.343371-0.626263 3.527336-1.970888 3.898797-3.570315 0.304945-1.327228 0.221034-2.858094-1.970888-5.78475-29.212322-38.938847-54.871725-90.190115-71.13513-138.245597 16.09456 16.645099 31.140231 39.952944 40.460504 59.870576 3.66139-5.142114 6.808056-14.013155 6.385431-20.533662l21.24486 24.37413c9.700943 11.121292-9.124821 11.103896-11.712763 21.490453-0.329505 1.327228 0.066515 2.01182 0.532119 2.503007-1.293459 5.353938 0.668219 15.07944 8.187473 18.844184-2.689249-5.27719-1.133823-11.629875 1.539053-14.352893 5.116531-5.200442 16.804734-9.031701 29.930683-5.910617 6.67298 1.581008 15.942087 6.241145 19.484773 14.749936 2.224668 5.320169 1.210571 12.136412-2.943029 17.388019 11.248182-2.697435 14.910595-13.134135 13.785981-19.020192 3.365654-10.995425-8.086166-20.35663-17.422811-23.072485 15.273868-0.827855 31.191396 4.989641 32.036647 26.15059 9.243525-8.830109 7.392364-18.403139 2.436492-25.668613-1.124614-10.606569-18.530029-14.589276-26.928303-12.364609 3.882424-2.571568 7.882528-4.947685 15.71389-6.309706 4.160763-0.24457 10.258645 0.473791 15.240099 8.745175 1.733481-11.434423-5.007037-17.929348-10.884908-19.095917-0.795109-1.107217-1.784646-1.606591-2.926656-1.987261-17.405415-5.827729-34.480302 24.449855-47.098691 8.575306-7.586792-9.55768-12.906961-19.976984-19.73139-30.091342 5.692652 2.206248 19.249413 2.933819 24.62791 0.870834-14.453177-11.958356-27.714202-27.021423-38.21844-44.730761 27.774577 17.143449 59.371202 22.369473 84.895529 7.865131 3.15383-1.793856 4.337795-4.02671 4.270257-6.225795-0.059352-1.860371-0.743944-3.78828-5.006014-6.630001-14.656815-9.785877-28.771277-20.018939-42.405809-30.590715 16.136515 6.909363 32.358989 13.607926 48.672536 19.815301 26.183336 9.971096 60.22464 20.670785 90.680279-3.196809 2.951215-2.316765 3.76372-4.828982 3.340071-7.061836-0.37146-1.885953-1.38658-3.746324-6.191003-5.937223-35.858696-16.440437-52.274574-23.840988-84.015486-44.274366 18.987447 7.603165 48.992831 17.701151 68.555375 23.561625 40.688701 12.20395 77.790714 3.941775 96.90505-21.506826 2.258437-3.103688 2.427282-5.768377 1.39579-7.865131-0.862647-1.76725-2.359744-3.315512-7.713682-4.194532-49.231261-8.347109-84.007299-21.262256-126.904295-37.280068 30.379914 5.886057 60.606333 10.656711 90.697675 14.326287 50.414203 6.004761 100.821243-11.789511 116.137067-52.486398 1.387603-3.670599 0.828878-6.351662-0.753153-8.144494-1.336438-1.497097-3.231601-2.62171-8.745175-2.038426-61.587684 6.199189-121.06838 1.77646-176.557158-4.88731 39.529295-1.877767 78.407768-5.405103 116.635417-10.529821 51.421136-7.019881 96.68504-37.594223 101.370759-81.783655 0.422625-3.991917-0.811482-6.486738-2.832512-7.847735-1.708921-1.143033-3.882424-1.760087-9.175987 0.228197-65.122183 24.15412-130.98831 35.977399-193.319937 43.699268 46.574758-14.378475 91.619674-30.785144 135.174656-49.146327 48.807612-20.695345 85.250616-62.948681 78.036307-107.764376-0.650823-4.043083-2.544963-6.17463-4.904707-6.977925-1.979074-0.667196-4.288676-0.700965-8.981559 2.682086-68.023256 48.722678-141.230582 82.145905-211.122395 109.497856 47.01478-28.399817 91.644233-58.719356 133.974317-90.849124 43.073005-32.780591 68.479651-83.761706 50.04172-126.294404-1.657756-3.839445-4.059456-5.464455-6.597255-5.666046-2.13871-0.160659-4.422729 0.388856-8.220219 4.913916-58.017368 69.130474-125.338636 124.044154-191.500499 171.482583 44.63764-44.638663 85.833901-90.832751 123.698277-138.498354 34.362622-43.26027 46.659693-100.085486 17.73492-137.508817-2.613524-3.38305-5.40408-4.38896-7.958252-3.949962-2.156106 0.372483-4.287653 1.505283-6.892991 6.935969C803.426349 234.465033 729.347167 319.885518 650.744971 407.258471c-2.494821 2.77316-5.270027 5.716188-3.561106 11.079336 1.827625 5.691629 9.108448 7.205099 15.502066 9.007141 34.955116 9.887184 59.9463 41.838897 59.912531 79.685877-0.050142 41.617863-37.102013 82.865289-82.873476 82.865289-26.293853 0-49.737798-12.254092-64.911382-31.359218C566.111408 547.57524 560.284703 532.174482 557.096081 518.608511L557.096081 518.608511zM517.761214 806.050106c-4.973268 40.256866-9.988492 82.316797 0 121.533984C527.748682 888.366903 522.733459 846.306972 517.761214 806.050106L517.761214 806.050106zM577.452711 906.540821c-19.748786-51.68208-24.332175-77.013001-30.598902-112.246457C543.385824 831.980685 546.583656 883.080503 577.452711 906.540821L577.452711 906.540821zM613.388155 870.639147c-31.157627-45.711088-41.475624-69.308529-55.717999-102.132098C563.007721 805.974381 577.926502 854.950839 613.388155 870.639147L613.388155 870.639147zM458.06767 906.540821c19.748786-51.68208 24.332175-77.013001 30.598902-112.246457C492.134557 831.980685 488.937748 883.080503 458.06767 906.540821L458.06767 906.540821zM422.132226 870.639147c31.157627-45.711088 41.475624-69.308529 55.717999-102.132098C472.513684 805.974381 457.594903 854.950839 422.132226 870.639147L422.132226 870.639147zM114.527406 240.122893c58.280358 68.098981 118.201076 113.990171 194.942901 167.82938-67.456345-38.355563-125.439944-73.131601-144.67196-88.193645C141.845589 301.768905 114.866121 271.423783 114.527406 240.122893L114.527406 240.122893zM920.992975 240.122893c-58.279335 68.098981-118.201076 113.990171-194.942901 167.82938 67.455321-38.355563 125.439944-73.131601 144.67196-88.193645C893.674792 301.768905 920.65426 271.423783 920.992975 240.122893L920.992975 240.122893zM674.653497 710.033285c-22.547529-16.635889-38.066991-32.518624-55.175647-53.239552C631.17424 682.20038 645.172045 706.539718 674.653497 710.033285L674.653497 710.033285zM860.589256 147.539264c-49.78794 95.763041-108.187001 168.056554-170.272012 238.304478 55.869449-52.748365 127.283941-129.619126 142.472875-148.740626C850.923106 214.259852 867.550809 178.054255 860.589256 147.539264L860.589256 147.539264zM761.739924 684.3483c-31.402197-14.411221-54.127781-29.68509-79.989799-50.406017C702.251042 661.673881 725.263152 687.536922 761.739924 684.3483L761.739924 684.3483zM841.999876 638.796848c-58.947554-14.258749-84.683704-25.854854-120.399137-42.067095C753.494123 623.261013 801.633516 652.109038 841.999876 638.796848L841.999876 638.796848zM915.733181 558.679136c-59.117422 3.172249-89.657996 1.260713-172.361603-10.536984 31.376615 13.057387 55.361889 22.538319 90.087784 26.463722C860.166631 577.623603 894.352221 577.61644 915.733181 558.679136L915.733181 558.679136zM948.403255 459.754079c-63.667042 19.654642-95.864348 27.207665-192.439894 36.171828 36.595476 3.214205 79.863932 7.197936 117.076462 1.76725C899.933333 493.777987 933.298232 483.58688 948.403255 459.754079L948.403255 459.754079zM960.16002 345.307514c-73.064063 48.91813-121.550357 69.841671-210.54832 102.774735 72.243371-17.48114 118.614491-30.0412 141.120065-39.522132C917.609924 397.228023 951.617459 375.416252 960.16002 345.307514L960.16002 345.307514zM360.866884 710.033285c22.547529-16.635889 38.066991-32.518624 55.175647-53.239552C404.346141 682.20038 390.349359 706.539718 360.866884 710.033285L360.866884 710.033285zM174.931125 147.539264c49.78794 95.763041 108.187001 168.056554 170.273035 238.304478-55.869449-52.748365-127.283941-129.619126-142.473899-148.740626C184.597275 214.259852 167.969573 178.054255 174.931125 147.539264L174.931125 147.539264zM273.780457 684.3483c31.402197-14.411221 54.127781-29.68509 79.989799-50.406017C333.270363 661.673881 310.25723 687.536922 273.780457 684.3483L273.780457 684.3483zM193.520505 638.796848c58.948577-14.258749 84.683704-25.854854 120.400161-42.067095C282.026258 623.261013 233.887888 652.109038 193.520505 638.796848L193.520505 638.796848zM119.788224 558.679136c59.117422 3.172249 89.656973 1.260713 172.361603-10.536984-31.376615 13.057387-55.362912 22.538319-90.088808 26.463722C175.35375 577.623603 141.169183 577.61644 119.788224 558.679136L119.788224 558.679136zM87.117127 459.754079c63.667042 19.654642 95.864348 27.207665 192.440917 36.171828-36.595476 3.214205-79.862909 7.197936-117.075439 1.76725C135.587048 493.777987 102.222149 483.58688 87.117127 459.754079L87.117127 459.754079zM75.361385 345.307514c73.063039 48.91813 121.549334 69.841671 210.547297 102.774735-72.243371-17.48114-118.614491-30.0412-141.120065-39.522132C117.910457 397.228023 83.902922 375.416252 75.361385 345.307514L75.361385 345.307514zM553.830711 489.278509c-11.5695-3.349281-22.792099-5.455245-32.636305-6.579859 6.021134 4.473895 13.93743 9.447163 20.475334 10.715039C545.80492 494.039953 551.480176 493.439272 553.830711 489.278509L553.830711 489.278509z"  /></svg>